<?xml version="1.0" standalone="no"?>
<!-- Generator: OCAD Version 10.3.0 -->
<!DOCTYPE svg PUBLIC "-//W3C//DTD SVG 20010904//EN"
"http://www.w3.org/TR/2001/REC-SVG-20010904/DTD/svg10.dtd" [
<!ENTITY stR "stroke-linejoin:round;stroke-linecap:round">
<!ENTITY stB "stroke-linejoin:bevel">
]>
<svg id="mainMap" width="4.0840cm" height="3.9390cm" viewBox="0 0 40.8400 39.3900" style="fill:none;stroke-width:0;fill-rule:evenodd" xmlns:xlink="http://www.w3.org/1999/xlink" xmlns="http://www.w3.org/2000/svg" >
<desc>Map</desc>
<g id="scaleTransform" transform="scale(1.00000000)">
<g id="mainMapContent">
<!-- map fill color -->
<rect id="mapBg" x="-100%" y="-100%" width="200%" height="200%" fill="white" />
<g>
<clipPath id="Clip" fill="none" stroke="none">
<rect x="0" y="0" width="40.8400" height="39.3900" fill="none" />
</clipPath>
<g clip-path="url(#Clip)">
<g opacity="1.00">
</g>
<g opacity="1.00">
</g>
<g opacity="1.00">
</g>
<g opacity="1.00">
</g>
<g opacity="1.00">
</g>
<g opacity="1.00">
</g>
<g opacity="1.00">
</g>
<g opacity="1.00">
</g>
<g opacity="1.00">
</g>
<g opacity="1.00">
<g id="1.7 line 24" >
<g stroke="rgb(0,161,199)">
<g stroke-width="1.00"
style="&stB;"
>
<path 
d="M12.69,9.81
L17.15,5.84
L17.15,5.84
L19.47,8.48
" />
</g>
<g stroke-width="1.00"
style="&stB;"
>
<path 
d="M18.35,6.72
L22.99,2.61
L22.99,2.61
L30.06,10.72
" />
</g>
<g stroke-width="1.00"
style="&stB;"
>
<path 
d="M11.89,28.58
L18.55,36.15
L18.55,36.15
L29.18,27.26
" />
</g>
</g>
</g>
</g>
<g opacity="1.00">
</g>
<g opacity="1.00">
</g>
<g opacity="1.00">
</g>
<g opacity="1.00">
<g id="1.6 line 20" >
<g stroke="rgb(0,163,61)">
<g stroke-width="1.00"
style="&stB;"
>
<path 
d="M9.08,12.69
L2.98,18.01
L2.98,18.01
L8.60,24.72
" />
</g>
<g stroke-width="1.00"
style="&stB;"
>
<path 
d="M32.69,13.63
L37.99,19.84
L37.99,19.84
L32.44,24.67
" />
</g>
</g>
</g>
</g>
<g opacity="1.00">
</g>
<g opacity="1.00">
</g>
<g opacity="1.00">
</g>
<g opacity="1.00">
</g>
<g opacity="1.00">
</g>
<g opacity="1.00">
</g>
<g opacity="1.00">
</g>
<g opacity="1.00">
</g>
<g opacity="1.00">
</g>
<g opacity="1.00">
</g>
<g opacity="1.00">
</g>
<g opacity="1.00">
</g>
<g opacity="1.00">
</g>
<g opacity="1.00">
</g>
<g opacity="1.00">
</g>
<g opacity="1.00">
</g>
<g opacity="1.00">
<g id="1.4 BLACK 3" >
<g stroke="rgb(102,102,102)">
<g fill="rgb(102,102,102)" >
<path 
d="M12.02,10.71
C11.58,11.02 11.48,11.63 11.79,12.07
C12.09,12.50 12.71,12.61 13.14,12.31
C13.57,12.00 13.68,11.39 13.37,10.95
C13.06,10.51 12.45,10.41 12.02,10.71
" />
</g>
<g fill="rgb(102,102,102)" >
<path 
d="M11.68,21.94
C11.64,22.17 11.58,22.31 11.46,22.39
C11.18,22.58 10.97,22.61 10.67,22.67
C10.36,22.73 10.06,22.71 9.79,22.73
C9.79,23.03 9.80,23.51 9.80,23.68
C10.26,23.69 10.50,23.70 11.03,23.65
C11.59,23.61 12.11,23.49 12.59,23.24
C12.95,23.04 13.02,22.91 13.19,22.63
C13.25,22.52 13.38,22.21 13.40,21.93
L13.40,13.34 
11.68,13.34 
11.68,21.93 
" />
</g>
<g fill="rgb(102,102,102)" >
<path 
d="M17.81,16.45
C17.96,16.05 18.14,15.76 18.42,15.48
C18.78,15.14 18.98,15.00 19.44,14.80
C20.06,14.56 20.43,14.59 21.06,14.67
C21.45,14.73 21.65,14.82 21.92,15.07
C22.26,15.39 22.33,15.46 22.46,15.90
C22.48,16.06 22.52,16.29 22.54,16.48
L22.54,23.21 
24.55,23.21 
24.55,16.70 
24.56,16.51 
C24.67,16.14 24.71,16.00 25.06,15.58
C25.46,15.11 25.84,14.94 26.52,14.78
C26.95,14.70 27.38,14.65 27.83,14.69
C28.39,14.75 28.57,14.83 28.89,15.10
C29.28,15.45 29.28,15.76 29.30,16.34
L29.32,23.29 
31.33,23.29 
31.32,16.00 
31.32,15.97 
C31.28,15.51 31.25,15.19 31.06,14.83
C30.84,14.48 30.79,14.35 30.52,14.13
C30.29,13.94 30.08,13.77 29.84,13.65
C29.10,13.32 28.87,13.27 28.36,13.22
C28.15,13.20 27.86,13.19 27.49,13.22
C27.09,13.24 26.83,13.29 26.48,13.40
C25.91,13.58 25.66,13.69 25.22,13.95
C24.88,14.18 24.75,14.35 24.46,14.64
C24.31,14.79 24.26,14.86 24.20,14.90
C24.18,14.84 24.12,14.75 24.10,14.68
C23.90,14.25 23.45,13.89 23.02,13.68
C22.52,13.46 22.17,13.33 21.56,13.28
C20.80,13.22 20.57,13.24 19.96,13.36
C19.34,13.48 19.12,13.62 18.64,13.84
C18.23,14.05 18.08,14.17 17.80,14.44
L17.80,13.45 
15.70,13.45 
15.70,23.32 
17.78,23.32 
17.80,16.54 
" />
</g>
</g>
</g>
<g id="1.2 txt2 3" >
<g stroke="rgb(102,102,102)">
<g fill="rgb(102,102,102)" >
<path 
d="M11.44,25.60
11.71,25.66 
C11.66,25.88 11.55,26.05 11.41,26.17
C11.26,26.28 11.09,26.34 10.88,26.34
C10.66,26.34 10.48,26.30 10.34,26.21
C10.21,26.12 10.10,25.99 10.03,25.82
C9.96,25.65 9.93,25.47 9.93,25.28
C9.93,25.07 9.97,24.89 10.05,24.73
C10.13,24.57 10.24,24.45 10.39,24.37
C10.54,24.29 10.70,24.25 10.88,24.25
C11.08,24.25 11.25,24.30 11.39,24.40
C11.53,24.51 11.62,24.65 11.68,24.84
L11.41,24.90 
C11.37,24.75 11.30,24.65 11.21,24.58
C11.12,24.51 11.01,24.48 10.87,24.48
C10.72,24.48 10.59,24.52 10.48,24.59
C10.38,24.67 10.31,24.77 10.26,24.89
C10.22,25.02 10.20,25.15 10.20,25.28
C10.20,25.45 10.23,25.60 10.28,25.73
C10.33,25.86 10.40,25.95 10.51,26.02
C10.62,26.08 10.73,26.11 10.85,26.11
C11.00,26.11 11.13,26.07 11.23,25.98
C11.34,25.89 11.41,25.77 11.44,25.60
" />
</g>
<g fill="rgb(102,102,102)" >
<path 
d="M11.82,26.30
12.59,24.28 
12.88,24.28 
13.71,26.30 
13.41,26.30 
13.17,25.69 
12.32,25.69 
12.10,26.30 
L11.82,26.30
M12.40,25.48
13.09,25.48 
12.88,24.92 
C12.81,24.75 12.76,24.61 12.73,24.50
C12.71,24.63 12.67,24.76 12.62,24.88
" />
</g>
<g fill="rgb(102,102,102)" >
<path 
d="M13.93,26.30
13.93,24.28 
14.82,24.28 
C15.00,24.28 15.14,24.30 15.23,24.34
C15.33,24.38 15.40,24.44 15.46,24.53
C15.51,24.62 15.54,24.72 15.54,24.84
C15.54,24.98 15.50,25.10 15.40,25.20
C15.31,25.30 15.17,25.36 14.97,25.39
C15.04,25.42 15.10,25.45 15.13,25.49
C15.21,25.56 15.29,25.65 15.36,25.76
L15.71,26.30 
15.37,26.30 
15.10,25.88 
C15.03,25.76 14.96,25.67 14.91,25.61
C14.86,25.54 14.82,25.50 14.78,25.47
C14.74,25.45 14.69,25.43 14.65,25.42
C14.62,25.41 14.57,25.41 14.50,25.41
L14.19,25.41 
14.19,26.30 
L13.93,26.30
M14.19,25.18
14.77,25.18 
C14.89,25.18 14.99,25.16 15.06,25.14
C15.12,25.11 15.18,25.07 15.21,25.02
C15.25,24.96 15.27,24.90 15.27,24.84
C15.27,24.74 15.23,24.66 15.16,24.60
C15.09,24.54 14.98,24.51 14.83,24.51
L14.19,24.51 
" />
</g>
<g fill="rgb(102,102,102)" >
<path 
d="M16.42,26.30
16.42,24.52 
15.76,24.52 
15.76,24.28 
17.36,24.28 
17.36,24.52 
16.69,24.52 
16.69,26.30 
" />
</g>
<g fill="rgb(102,102,102)" >
<path 
d="M17.50,25.32
C17.50,24.99 17.59,24.72 17.77,24.53
C17.95,24.34 18.18,24.25 18.47,24.25
C18.66,24.25 18.82,24.29 18.97,24.38
C19.12,24.47 19.24,24.60 19.32,24.76
C19.39,24.91 19.43,25.10 19.43,25.30
C19.43,25.50 19.39,25.69 19.31,25.85
C19.23,26.01 19.11,26.13 18.96,26.21
C18.81,26.30 18.64,26.34 18.47,26.34
C18.28,26.34 18.11,26.29 17.96,26.20
C17.81,26.11 17.69,25.98 17.62,25.83
C17.54,25.67 17.50,25.50 17.50,25.32
L17.50,25.32
M17.78,25.33
C17.78,25.57 17.84,25.76 17.97,25.90
C18.10,26.04 18.27,26.11 18.47,26.11
C18.67,26.11 18.83,26.04 18.96,25.90
C19.09,25.76 19.16,25.56 19.16,25.30
C19.16,25.13 19.13,24.99 19.08,24.87
C19.02,24.74 18.94,24.65 18.83,24.58
C18.72,24.51 18.60,24.48 18.47,24.48
C18.28,24.48 18.12,24.54 17.98,24.67
C17.85,24.80 17.78,25.02 17.78,25.33
" />
</g>
<g fill="rgb(102,102,102)" >
<path 
d="M20.72,25.51
20.72,25.28 
21.58,25.27 
21.58,26.02 
C21.45,26.13 21.31,26.21 21.17,26.26
C21.03,26.31 20.89,26.34 20.74,26.34
C20.54,26.34 20.36,26.30 20.20,26.21
C20.04,26.13 19.92,26.00 19.84,25.84
C19.75,25.68 19.71,25.50 19.71,25.30
C19.71,25.11 19.75,24.92 19.83,24.75
C19.92,24.58 20.03,24.46 20.19,24.37
C20.34,24.29 20.52,24.25 20.72,24.25
C20.87,24.25 21.00,24.27 21.12,24.32
C21.24,24.37 21.33,24.43 21.40,24.52
C21.46,24.60 21.51,24.71 21.55,24.85
L21.31,24.92 
C21.28,24.81 21.24,24.73 21.20,24.67
C21.15,24.61 21.09,24.57 21.00,24.53
C20.92,24.50 20.83,24.48 20.72,24.48
C20.60,24.48 20.50,24.50 20.41,24.53
C20.32,24.57 20.25,24.62 20.19,24.68
C20.14,24.74 20.09,24.81 20.06,24.88
C20.01,25.01 19.99,25.14 19.99,25.29
C19.99,25.47 20.02,25.62 20.08,25.74
C20.14,25.86 20.23,25.95 20.35,26.01
C20.47,26.07 20.59,26.10 20.73,26.10
C20.84,26.10 20.96,26.08 21.07,26.03
C21.18,25.99 21.26,25.94 21.32,25.89
L21.32,25.51 
" />
</g>
<g fill="rgb(102,102,102)" >
<path 
d="M21.98,26.30
21.98,24.28 
22.87,24.28 
C23.05,24.28 23.19,24.30 23.28,24.34
C23.38,24.38 23.45,24.44 23.51,24.53
C23.56,24.62 23.59,24.72 23.59,24.84
C23.59,24.98 23.55,25.10 23.45,25.20
C23.36,25.30 23.22,25.36 23.02,25.39
C23.09,25.42 23.15,25.45 23.19,25.49
C23.26,25.56 23.34,25.65 23.41,25.76
L23.76,26.30 
23.42,26.30 
23.15,25.88 
C23.08,25.76 23.01,25.67 22.96,25.61
C22.91,25.54 22.87,25.50 22.83,25.47
C22.79,25.45 22.75,25.43 22.70,25.42
C22.67,25.41 22.62,25.41 22.56,25.41
L22.25,25.41 
22.25,26.30 
L21.98,26.30
M22.25,25.18
22.82,25.18 
C22.94,25.18 23.04,25.16 23.11,25.14
C23.18,25.11 23.23,25.07 23.26,25.02
C23.30,24.96 23.32,24.90 23.32,24.84
C23.32,24.74 23.28,24.66 23.21,24.60
C23.14,24.54 23.03,24.51 22.88,24.51
L22.25,24.51 
" />
</g>
<g fill="rgb(102,102,102)" >
<path 
d="M23.79,26.30
24.57,24.28 
24.85,24.28 
25.68,26.30 
25.38,26.30 
25.14,25.69 
24.30,25.69 
24.07,26.30 
L23.79,26.30
M24.37,25.48
25.06,25.48 
24.85,24.92 
C24.78,24.75 24.73,24.61 24.70,24.50
C24.68,24.63 24.64,24.76 24.59,24.88
" />
</g>
<g fill="rgb(102,102,102)" >
<path 
d="M25.89,26.30
25.89,24.28 
26.66,24.28 
C26.79,24.28 26.89,24.29 26.96,24.30
C27.06,24.32 27.15,24.35 27.21,24.40
C27.28,24.44 27.33,24.51 27.38,24.59
C27.42,24.68 27.44,24.77 27.44,24.87
C27.44,25.04 27.38,25.19 27.27,25.31
C27.16,25.42 26.97,25.48 26.68,25.48
L26.16,25.48 
26.16,26.30 
L25.89,26.30
M26.16,25.25
26.68,25.25 
C26.86,25.25 26.98,25.21 27.05,25.15
C27.12,25.08 27.16,24.99 27.16,24.88
C27.16,24.79 27.14,24.72 27.10,24.66
C27.05,24.60 27.00,24.56 26.93,24.54
C26.88,24.53 26.80,24.52 26.68,24.52
L26.16,24.52 
" />
</g>
<g fill="rgb(102,102,102)" >
<path 
d="M27.78,26.30
27.78,24.28 
28.05,24.28 
28.05,25.11 
29.10,25.11 
29.10,24.28 
29.37,24.28 
29.37,26.30 
29.10,26.30 
29.10,25.35 
28.05,25.35 
28.05,26.30 
" />
</g>
<g fill="rgb(102,102,102)" >
<path 
d="M30.38,26.30
30.38,25.45 
29.61,24.28 
29.93,24.28 
30.33,24.89 
C30.40,25.01 30.47,25.12 30.53,25.24
C30.59,25.13 30.67,25.01 30.75,24.88
L31.15,24.28 
31.46,24.28 
30.65,25.45 
30.65,26.30 
" />
</g>
</g>
</g>
</g>
<g opacity="1.00">
</g>
<g opacity="1.00">
</g>
<g opacity="1.00">
</g>
</g>
</g>
</g>
</g>
</svg>
